<mxfile host="app.diagrams.net" agent="Mozilla/5.0 (Macintosh; Intel Mac OS X 10_15_7) AppleWebKit/537.36 (KHTML, like Gecko) Chrome/133.0.0.0 Safari/537.36" version="26.0.16">
  <diagram name="Page-1" id="jYUmLfXh1z_BAC6ygCbw">
    <mxGraphModel dx="966" dy="650" grid="1" gridSize="10" guides="1" tooltips="1" connect="1" arrows="1" fold="1" page="1" pageScale="1" pageWidth="827" pageHeight="1169" math="1" shadow="0">
      <root>
        <mxCell id="0" />
        <mxCell id="1" parent="0" />
        <mxCell id="5ea07RuGtX9LsD7H2_pY-15" style="edgeStyle=orthogonalEdgeStyle;rounded=0;orthogonalLoop=1;jettySize=auto;html=1;entryX=0.5;entryY=0;entryDx=0;entryDy=0;fontSize=16;strokeWidth=2;" parent="1" source="5ea07RuGtX9LsD7H2_pY-1" target="5ea07RuGtX9LsD7H2_pY-4" edge="1">
          <mxGeometry relative="1" as="geometry" />
        </mxCell>
        <mxCell id="5ea07RuGtX9LsD7H2_pY-18" style="edgeStyle=orthogonalEdgeStyle;rounded=0;orthogonalLoop=1;jettySize=auto;html=1;entryX=0.5;entryY=0;entryDx=0;entryDy=0;fontSize=16;strokeWidth=2;" parent="1" source="5ea07RuGtX9LsD7H2_pY-1" target="5ea07RuGtX9LsD7H2_pY-9" edge="1">
          <mxGeometry relative="1" as="geometry" />
        </mxCell>
        <mxCell id="5ea07RuGtX9LsD7H2_pY-1" value="Labeled Data$$D_L=((x_i,y_i))_{i=1}^L$$" style="rounded=1;whiteSpace=wrap;html=1;fillColor=#fff2cc;strokeColor=#d6b656;fontSize=12;" parent="1" vertex="1">
          <mxGeometry x="330" y="110" width="120" height="60" as="geometry" />
        </mxCell>
        <mxCell id="5ea07RuGtX9LsD7H2_pY-16" style="edgeStyle=orthogonalEdgeStyle;rounded=0;orthogonalLoop=1;jettySize=auto;html=1;fontSize=16;strokeWidth=2;entryX=0.608;entryY=0;entryDx=0;entryDy=0;entryPerimeter=0;" parent="1" source="5ea07RuGtX9LsD7H2_pY-2" target="5ea07RuGtX9LsD7H2_pY-4" edge="1">
          <mxGeometry relative="1" as="geometry" />
        </mxCell>
        <mxCell id="5ea07RuGtX9LsD7H2_pY-19" style="edgeStyle=orthogonalEdgeStyle;rounded=0;orthogonalLoop=1;jettySize=auto;html=1;entryX=0;entryY=0.5;entryDx=0;entryDy=0;fontSize=16;strokeWidth=2;" parent="1" source="5ea07RuGtX9LsD7H2_pY-2" target="5ea07RuGtX9LsD7H2_pY-9" edge="1">
          <mxGeometry relative="1" as="geometry" />
        </mxCell>
        <mxCell id="5ea07RuGtX9LsD7H2_pY-2" value="Unlabeled Data&lt;br&gt;$$D_U=(x_i)_{i=l+1}^{l+u}$$" style="rounded=1;whiteSpace=wrap;html=1;fillColor=#fff2cc;strokeColor=#d6b656;fontSize=12;" parent="1" vertex="1">
          <mxGeometry x="330" y="210" width="120" height="60" as="geometry" />
        </mxCell>
        <mxCell id="5ea07RuGtX9LsD7H2_pY-17" style="edgeStyle=orthogonalEdgeStyle;rounded=0;orthogonalLoop=1;jettySize=auto;html=1;entryX=0;entryY=0.5;entryDx=0;entryDy=0;exitX=1;exitY=0.5;exitDx=0;exitDy=0;fontSize=16;strokeWidth=2;" parent="1" source="5ea07RuGtX9LsD7H2_pY-4" target="5ea07RuGtX9LsD7H2_pY-7" edge="1">
          <mxGeometry relative="1" as="geometry" />
        </mxCell>
        <mxCell id="5ea07RuGtX9LsD7H2_pY-4" value="ADVI" style="ellipse;whiteSpace=wrap;html=1;fillColor=#f8cecc;strokeColor=#b85450;fontSize=16;" parent="1" vertex="1">
          <mxGeometry x="160" y="280" width="120" height="80" as="geometry" />
        </mxCell>
        <mxCell id="5ea07RuGtX9LsD7H2_pY-20" style="edgeStyle=orthogonalEdgeStyle;rounded=0;orthogonalLoop=1;jettySize=auto;html=1;entryX=0.5;entryY=1;entryDx=0;entryDy=0;fontSize=16;strokeWidth=2;" parent="1" source="5ea07RuGtX9LsD7H2_pY-7" target="5ea07RuGtX9LsD7H2_pY-9" edge="1">
          <mxGeometry relative="1" as="geometry" />
        </mxCell>
        <mxCell id="5ea07RuGtX9LsD7H2_pY-7" value="Predicted Labels$$(y_{i(pred)})_{i=l+1}^{l+u}$$" style="whiteSpace=wrap;html=1;fillColor=#dae8fc;strokeColor=#6c8ebf;fontSize=12;" parent="1" vertex="1">
          <mxGeometry x="330" y="290" width="120" height="60" as="geometry" />
        </mxCell>
        <mxCell id="5ea07RuGtX9LsD7H2_pY-21" style="edgeStyle=orthogonalEdgeStyle;rounded=0;orthogonalLoop=1;jettySize=auto;html=1;entryX=0;entryY=0.5;entryDx=0;entryDy=0;fontSize=16;strokeWidth=2;" parent="1" source="5ea07RuGtX9LsD7H2_pY-9" target="5ea07RuGtX9LsD7H2_pY-13" edge="1">
          <mxGeometry relative="1" as="geometry" />
        </mxCell>
        <mxCell id="5ea07RuGtX9LsD7H2_pY-9" value="MCMC" style="ellipse;whiteSpace=wrap;html=1;fillColor=#f8cecc;strokeColor=#b85450;fontSize=16;" parent="1" vertex="1">
          <mxGeometry x="520" y="200" width="120" height="80" as="geometry" />
        </mxCell>
        <mxCell id="5ea07RuGtX9LsD7H2_pY-13" value="Estimated&lt;br&gt;Parameters" style="whiteSpace=wrap;html=1;fillColor=#dae8fc;strokeColor=#6c8ebf;fontSize=16;" parent="1" vertex="1">
          <mxGeometry x="690" y="210" width="120" height="60" as="geometry" />
        </mxCell>
        <mxCell id="5ea07RuGtX9LsD7H2_pY-24" value="Algorithm" style="text;html=1;align=center;verticalAlign=middle;whiteSpace=wrap;rounded=0;fillColor=#f8cecc;strokeColor=#b85450;" parent="1" vertex="1">
          <mxGeometry x="290" y="410" width="60" height="30" as="geometry" />
        </mxCell>
        <mxCell id="5ea07RuGtX9LsD7H2_pY-25" value="Data" style="text;html=1;align=center;verticalAlign=middle;whiteSpace=wrap;rounded=0;fillColor=#fff2cc;strokeColor=#d6b656;" parent="1" vertex="1">
          <mxGeometry x="370" y="410" width="60" height="30" as="geometry" />
        </mxCell>
        <mxCell id="5ea07RuGtX9LsD7H2_pY-26" value="Output" style="text;html=1;align=center;verticalAlign=middle;whiteSpace=wrap;rounded=0;fillColor=#dae8fc;strokeColor=#6c8ebf;" parent="1" vertex="1">
          <mxGeometry x="450" y="410" width="60" height="30" as="geometry" />
        </mxCell>
      </root>
    </mxGraphModel>
  </diagram>
</mxfile>
